2.mot
version=1
nRows=17
nColumns=37
inDegrees=yes
endheader
time	ground_force_vx	ground_force_vy	ground_force_vz	ground_force_px	ground_force_py	ground_force_pz	1_ground_force_vx	1_ground_force_vy	1_ground_force_vz	1_ground_force_px	1_ground_force_py	1_ground_force_pz	2_ground_force_vx	2_ground_force_vy	2_ground_force_vz	2_ground_force_px	2_ground_force_py	2_ground_force_pz	3_ground_force_vx	3_ground_force_vy	3_ground_force_vz	3_ground_force_px	3_ground_force_py	3_ground_force_pz	ground_torque_x	ground_torque_y	ground_torque_z	1_ground_torque_x	1_ground_torque_y	1_ground_torque_z	2_ground_torque_x	2_ground_torque_y	2_ground_torque_z	3_ground_torque_x	3_ground_torque_y	3_ground_torque_z
5.088435	1.453057	0.097210	-0.675768	0.000000	0.000000	0.000000	0.500552	-6.099417	0.305019	0.000000	0.000000	0.000000	6.137322	38.268164	14.953578	0.938170	0.000000	-0.156090	154.797911	750.281846	202.049773	1.088154	0.000000	-0.484326	0.000000	0.000000	0.000000	0.000000	0.000000	0.000000	0.000000	1.545454	0.000000	0.000000	12.443603	0.000000
5.095238	1.096506	-1.717680	-1.002631	0.000000	0.000000	0.000000	0.276784	-7.479175	0.338126	0.000000	0.000000	0.000000	6.682367	35.862645	15.265894	0.937931	0.000000	-0.155865	139.304778	763.670140	184.392944	1.087372	0.000000	-0.484400	0.000000	0.000000	0.000000	0.000000	0.000000	0.000000	0.000000	1.550687	0.000000	0.000000	14.054253	0.000000
5.102041	0.877097	-1.339825	-0.917197	0.000000	0.000000	0.000000	0.417789	-5.974487	0.323814	0.000000	0.000000	0.000000	6.739581	35.500794	15.317061	0.937683	0.000000	-0.155615	112.500037	796.287357	154.959378	1.086108	0.000000	-0.485295	0.000000	0.000000	0.000000	0.000000	0.000000	0.000000	0.000000	1.569585	0.000000	0.000000	16.765567	0.000000
5.108844	0.818884	-0.381818	-0.668310	0.000000	0.000000	0.000000	0.574261	-3.765389	0.066382	0.000000	0.000000	0.000000	6.138548	36.609832	15.249680	0.937422	0.000000	-0.155375	82.540379	840.901249	117.601844	1.084362	0.000000	-0.487030	0.000000	0.000000	0.000000	0.000000	0.000000	0.000000	0.000000	1.515052	0.000000	0.000000	19.982112	0.000000
5.115646	0.671440	-0.498826	-0.705304	0.000000	0.000000	0.000000	0.618738	-4.159642	-0.086437	0.000000	0.000000	0.000000	6.167749	38.460796	15.151387	0.937145	0.000000	-0.155179	55.140594	886.665103	76.369569	1.082143	0.000000	-0.489592	0.000000	0.000000	0.000000	0.000000	0.000000	0.000000	0.000000	1.524753	0.000000	0.000000	23.406323	0.000000
5.122449	0.682714	-1.024733	-0.838648	0.000000	0.000000	0.000000	0.499036	-6.888665	0.247770	0.000000	0.000000	0.000000	6.471564	37.553201	15.499946	0.936849	0.000000	-0.155058	33.420765	928.083487	35.067463	1.079468	0.000000	-0.492936	0.000000	0.000000	0.000000	0.000000	0.000000	0.000000	0.000000	1.579679	0.000000	0.000000	26.916977	0.000000
5.129252	1.121071	-0.658210	-0.809209	0.000000	0.000000	0.000000	0.436343	-7.916286	0.275773	0.000000	0.000000	0.000000	6.312328	35.745385	15.829695	0.936529	0.000000	-0.155035	18.680315	962.169778	-2.542267	1.076368	0.000000	-0.496987	0.000000	0.000000	0.000000	0.000000	0.000000	0.000000	0.000000	1.604964	0.000000	0.000000	29.961059	0.000000
5.136054	1.250828	0.038186	-0.626896	0.000000	0.000000	0.000000	0.484841	-5.795967	-0.122250	0.000000	0.000000	0.000000	6.081014	37.384470	15.363849	0.936181	0.000000	-0.155129	10.946010	983.539982	-32.573038	1.072882	0.000000	-0.501647	0.000000	0.000000	0.000000	0.000000	0.000000	0.000000	0.000000	1.601472	0.000000	0.000000	32.193445	0.000000
5.142857	0.834614	0.537012	-0.257012	0.000000	0.000000	0.000000	0.454632	-5.160950	0.107715	0.000000	0.000000	0.000000	6.056960	38.958392	14.851320	0.935805	0.000000	-0.155355	9.840700	991.524315	-54.364630	1.069059	0.000000	-0.506798	0.000000	0.000000	0.000000	0.000000	0.000000	0.000000	0.000000	1.536092	0.000000	0.000000	33.789848	0.000000
5.149660	0.791098	0.318464	-0.300434	0.000000	0.000000	0.000000	0.271596	-6.193586	0.321663	0.000000	0.000000	0.000000	6.271189	37.997021	14.730079	0.935398	0.000000	-0.155720	11.541328	988.328031	-70.081346	1.064959	0.000000	-0.512307	0.000000	0.000000	0.000000	0.000000	0.000000	0.000000	0.000000	1.527244	0.000000	0.000000	34.594043	0.000000
5.156463	1.093920	-0.564341	-0.671252	0.000000	0.000000	0.000000	0.219767	-5.702626	0.246941	0.000000	0.000000	0.000000	6.578610	35.342527	14.597971	0.934962	0.000000	-0.156228	19.270826	988.955294	-88.242431	1.060652	0.000000	-0.518034	0.000000	0.000000	0.000000	0.000000	0.000000	0.000000	0.000000	1.525202	0.000000	0.000000	35.706932	0.000000
5.163265	1.150550	-0.013572	-0.694436	0.000000	0.000000	0.000000	0.370944	-4.868632	0.374785	0.000000	0.000000	0.000000	6.667290	34.510170	14.326015	0.934503	0.000000	-0.156874	26.672808	1038.282643	-138.774692	1.056212	0.000000	-0.523832	0.000000	0.000000	0.000000	0.000000	0.000000	0.000000	0.000000	1.474025	0.000000	0.000000	40.099147	0.000000
5.170068	1.246273	1.493434	-0.725061	0.000000	0.000000	0.000000	0.505202	-5.009727	0.392477	0.000000	0.000000	0.000000	6.612301	36.814421	14.179950	0.934027	0.000000	-0.157653	-0.371909	1149.100612	-216.542883	1.051722	0.000000	-0.529561	0.000000	0.000000	0.000000	0.000000	0.000000	0.000000	0.000000	1.440945	0.000000	0.000000	44.777539	0.000000
5.176871	1.426432	1.755847	-0.928561	0.000000	0.000000	0.000000	0.596053	-6.044548	0.223249	0.000000	0.000000	0.000000	6.540491	38.701131	14.313182	0.933546	0.000000	-0.158551	-58.985136	1228.909466	-241.200067	1.047264	0.000000	-0.535083	0.000000	0.000000	0.000000	0.000000	0.000000	0.000000	0.000000	1.397193	0.000000	0.000000	43.788861	0.000000
5.183673	1.188873	0.108342	-0.850633	0.000000	0.000000	0.000000	0.561135	-7.256494	0.190493	0.000000	0.000000	0.000000	6.362515	37.474488	14.252050	0.933073	0.000000	-0.159551	-80.459865	1199.696658	-188.464371	1.042920	0.000000	-0.540273	0.000000	0.000000	0.000000	0.000000	0.000000	0.000000	0.000000	1.434320	0.000000	0.000000	39.259536	0.000000
5.190476	0.996237	-0.809830	-0.646602	0.000000	0.000000	0.000000	0.471395	-7.275926	0.360564	0.000000	0.000000	0.000000	6.145461	35.874138	13.848829	0.932623	0.000000	-0.160633	-47.103909	1114.847861	-137.815249	1.038767	0.000000	-0.545023	0.000000	0.000000	0.000000	0.000000	0.000000	0.000000	0.000000	1.548420	0.000000	0.000000	36.436589	0.000000
5.197279	1.038211	0.208926	-0.709527	0.000000	0.000000	0.000000	0.417259	-5.675542	0.381048	0.000000	0.000000	0.000000	6.196838	37.384831	13.215398	0.932213	0.000000	-0.161771	-20.680766	1062.382326	-134.609852	1.034874	0.000000	-0.549240	0.000000	0.000000	0.000000	0.000000	0.000000	0.000000	0.000000	1.470925	0.000000	0.000000	36.461640	0.000000
